<?xml version="1.0" ?><!DOCTYPE svg  PUBLIC '-//W3C//DTD SVG 1.1//EN'  'http://www.w3.org/Graphics/SVG/1.1/DTD/svg11.dtd'><svg height="1.04167in" style="shape-rendering:geometricPrecision; text-rendering:geometricPrecision; image-rendering:optimizeQuality; fill-rule:evenodd; clip-rule:evenodd" version="1.1" viewBox="0 0 134 134" width="1.04167in" xml:space="preserve" xmlns="http://www.w3.org/2000/svg" xmlns:xlink="http://www.w3.org/1999/xlink"><defs><style type="text/css">
   <![CDATA[
    .fil0 {fill:#ED2524}
    .fil1 {fill:white;fill-rule:nonzero}
   ]]>
  </style></defs><g id="Layer_x0020_1"><g id="_541879904"><rect class="fil0" height="134" rx="13" ry="13" width="134"/><g><path class="fil1" d="M65 31c1,0 1,1 2,2 1,0 2,1 3,3 0,1 1,2 2,4 0,1 0,3 0,5 0,4 -1,7 -2,9 -1,1 -2,2 -3,3 -1,1 -2,2 -3,3 0,0 -1,1 -2,2 0,1 0,2 0,3 0,1 0,2 1,3 0,0 1,1 1,1l4 3c2,2 4,4 5,6 2,2 3,5 3,9 0,5 -2,9 -7,13 -4,4 -11,6 -20,6 -7,0 -13,-1 -16,-4 -4,-3 -6,-6 -6,-10 0,-2 1,-4 2,-7 1,-2 3,-4 6,-6 4,-2 7,-3 11,-4 4,0 7,-1 9,-1 -1,-1 -1,-2 -2,-3 -1,-1 -1,-2 -1,-4 0,-1 0,-2 0,-2 1,-1 1,-2 1,-2 -1,0 -2,0 -3,0 -6,0 -10,-2 -13,-5 -3,-3 -5,-7 -5,-11 0,-5 3,-10 7,-14 3,-3 6,-4 9,-5 3,-1 6,-1 9,-1l21 0 -6 4 -7 0zm4 60l0 0c0,-3 -1,-5 -2,-7 -2,-2 -5,-4 -9,-7 -1,0 -1,0 -2,0 -1,0 -2,0 -4,0 -3,0 -5,1 -7,2 -1,0 -1,0 -2,1 -1,0 -2,1 -3,1 -1,1 -2,2 -3,4 0,1 -1,3 -1,4 0,4 2,7 5,9 3,3 8,4 13,4 5,0 9,-1 11,-3 3,-2 4,-5 4,-8zm-14 -31l0 0c2,0 5,-1 6,-3 1,-1 2,-2 2,-4 0,-1 0,-2 0,-3 0,-4 -1,-9 -3,-13 -1,-2 -2,-3 -4,-5 -1,-1 -3,-1 -5,-1 -3,0 -6,1 -7,3 -2,2 -3,5 -3,8 0,3 1,7 4,11 1,2 2,4 4,5 1,2 3,2 6,2z"/><polygon class="fil1" points="106,38 95,38 95,28 90,28 90,38 79,38 79,44 90,44 90,55 95,55 95,44 106,44 "/></g></g></g></svg>