<?xml version="1.0" ?><!DOCTYPE svg  PUBLIC '-//W3C//DTD SVG 1.1//EN'  'http://www.w3.org/Graphics/SVG/1.1/DTD/svg11.dtd'><svg height="100%" style="fill-rule: evenodd;
clip-rule: evenodd;
stroke-linejoin: round;
stroke-miterlimit: 1.41421;" version="1.1" viewBox="0 0 24 24" width="100%" xml:space="preserve" xmlns="http://www.w3.org/2000/svg" xmlns:serif="http://www.serif.com/" xmlns:xlink="http://www.w3.org/1999/xlink"><rect height="24" id="Artboard9" style="fill: none;" width="24" x="0" y="0"/><g><rect height="20" style="fill: #0077b5;" width="20" x="2" y="2"/><path d="M8.293,9.762l0,8.895l-2.728,0l0,-8.895l2.728,0Zm4.317,1.199l-0.002,-1.197l-2.459,-0.002l0,8.895l2.729,0l0,-4.833c0,-1.349 0.946,-1.845 1.635,-1.845c1.084,0 1.462,0.863 1.462,1.949l0,4.729l2.642,0l0,-5.447c0,-2.491 -1.496,-3.624 -3.25,-3.624c-1.393,-0.016 -2.3,0.72 -2.73,1.375l-0.027,0Zm-5.681,-5.618c0.853,0 1.546,0.693 1.546,1.546c0,0.853 -0.693,1.546 -1.546,1.546c-0.853,0 -1.546,-0.693 -1.546,-1.546c0,-0.853 0.693,-1.546 1.546,-1.546Z" style="fill: #fff;
fill-rule: nonzero;"/></g></svg>