<?xml version="1.0" ?><svg viewBox="0 0 64 64" xmlns="http://www.w3.org/2000/svg"><defs><style>.cls-1{fill:#00aade;}.cls-2{fill:#fff;}</style></defs><title/><g data-name="6-twitter" id="_6-twitter"><rect class="cls-1" height="64" rx="11.2" ry="11.2" transform="translate(64 64) rotate(180)" width="64"/><path class="cls-2" d="M47.2,20.8a8,8,0,0,0,4-4.8c-1.6,1.6-5,2.13-5,2.13A8,8,0,0,0,32.37,25.6H32a23.45,23.45,0,0,1-16.8-8.8S10.4,23.2,17.6,28c0,0-3.2,0-4-.8,0,0-.8,4.8,6.4,8a3.86,3.86,0,0,1-3.2,0c0,3.09,3.22,5.6,7.2,5.6,0,2.21-5.37,4-12,4C22.4,52,47.2,50.4,48.8,23.2l4-4Z"/></g></svg>