<?xml version="1.0" ?><!DOCTYPE svg  PUBLIC '-//W3C//DTD SVG 1.1//EN'  'http://www.w3.org/Graphics/SVG/1.1/DTD/svg11.dtd'><svg height="1.04167in" style="shape-rendering:geometricPrecision; text-rendering:geometricPrecision; image-rendering:optimizeQuality; fill-rule:evenodd; clip-rule:evenodd" version="1.1" viewBox="0 0 187 187" width="1.04167in" xml:space="preserve" xmlns="http://www.w3.org/2000/svg" xmlns:xlink="http://www.w3.org/1999/xlink"><defs><style type="text/css">
   <![CDATA[
    .fil1 {fill:#FEFEFE}
    .fil0 {fill:#485992}
   ]]>
  </style></defs><g id="Layer_x0020_1"><rect class="fil0" height="187" rx="18" ry="18" width="187"/><path class="fil1" d="M131 79l0 -12c0,-6 4,-7 6,-7 3,0 18,0 18,0l0 -27 -24 0c-27,0 -33,20 -33,32l0 14 -15 0 0 19 0 12 16 0c0,35 0,77 0,77l30 0c0,0 0,-42 0,-77l23 0 1 -12 2 -19 -24 0z"/></g></svg>